<svg class="icon" viewBox="0 0 1024 1024" xmlns="http://www.w3.org/2000/svg" width="200" height="200"><defs><style/></defs><path d="M61.66899999999998 512.504a450 450 0 1 0 900 0 450 450 0 1 0-900 0z"/><path d="M637.296 316.831l24.52 43.789c9.201-8.182 48.253-46.711 51.836-113.615 2.428-45.293-11.018-85.833-37.855-114.148-24.497-25.844-58.255-40.078-95.057-40.078-8.421 0-16.986.763-25.455 2.269-30.928 5.499-48.895 19.965-58.521 31.132-7.272 8.435-10.981 16.239-12.559 20.186l52.486.875c.826-4.509 4.691-14.487 22.575-18.121a84.993 84.993 0 0 1 16.88-1.713c25.906 0 50.907 12.136 70.392 34.171 18.345 20.746 29.369 47.711 30.243 73.98 1.706 51.203-31.205 75.889-39.485 81.273z"/><path d="M712.926 218.004c.432-1.278-1.484-12.139-2.428-16.59-1.079 2.428-5.327 8.935-11.903 10.318-5.868 1.234-10.602.906-14.518.215-4.414-15.994-12.637-31.58-22.269-46.274-.306-.466-.646-.953-.981-1.437 6.722-1.58 11.789-1.406 20.223-7.285 3.841-2.677 5.665-8.317 4.586-12.498-.809-1.079-6.564-8.587-10.34-12.094 1.618 2.293 3.866 13.263.539 19.197-3.804 6.785-10.099 9.771-15.541 11.911-7.751-10.878-22.673-25.664-42.182-35.242 3.111-2.835 6.398-5.393 8.831-13.466 1.484-4.923-.204-11.965-3.237-15.038-1.242-.527-10.048-3.17-15.511-4.181 2.36 1.888 10.038 8.646 10.318 15.443.275 6.662-1.495 11.9-3.167 15.925-19.24-8.753-42.642-12.249-67.912-2.236-19.746 7.824-22.045 17.383-24.637 24.367l13.442-1.304s1.795-14.4 23.198-18.747c61.296-12.451 115.155 47.872 117.071 105.337.251 7.523.101 13.228-.4 18.009l-.004-.003a210.08 210.08 0 0 1-.776 4.957c.024.017.048.041.072.058-1.124 6.171-2.99 10.998-5.501 17.172l2.158 17.129s5.845-11.591 10.343-26.054c3.82 5.313 8.139 11.162 13.934 12.567 5.934 1.439 10.649 1.096 13.487-2.158.371-1.382 1.956-10.217 2.36-13.319-1.888 1.888-4.93 5.814-10.925 6.643-6.511.9-12.292-4.413-17.194-9.475 1.422-5.317 2.563-10.849 3.1-16.218.866-8.663.187-17.297-1.641-25.833 3.016 1.451 6.143 2.984 10.632 4.073 5.938 1.436 13.935-.615 16.773-3.869z"/><path d="M498.072 124.705c-3.675 3.743-9.846 12.206-12.678 18.916 17.365-1.787 46.7-.641 52.399.034 1.484-3.237 3.17-5.226 4.586-6.575-8.97-.63-27.673-22.39-44.307-12.375z"/><path d="M525.177 142.937c5.837.199 10.544.674 12.574.899.714-1.506 1.64-3.476 3.264-5.297.47-.549.931-1.048 1.363-1.46-2.476-.174-5.697-1.961-9.409-4.243-4.076 3.411-6.302 6.868-7.792 10.101z"/><path d="M681.89 311.439c0 60.275-80.751 69.817-171.117 69.048-107.019-.911-171.117-8.773-171.117-69.048s76.612-132.937 171.117-132.937S681.89 251.165 681.89 311.439z"/><path d="M683.569 290.116c-2.877-11.06-10.599-23.524-10.599-23.524l-.573 1.551-.21 4.264c6.277 13.03 9.704 26.306 9.704 39.032 0 13.715-4.192 24.795-11.715 33.733 1.59 1.098 3.924 2.676 4.447 2.851 6.069-4.586 22.794-34.393 24.412-39.788-2.833 2.967-10.35 1.546-15.466-18.119z"/><path d="M690.749 365.366c-7.301-6.966-15.135-12.309-23.358-16.276-26.31 28.574-88.709 33.885-156.613 33.307-76.508-.651-130.901-4.888-155.339-29.568-13.278 5.516-25.554 13.79-36.263 25.348-52.078 56.207-84.465 135.057-84.465 222.36 0 186.487 124.217 295.579 266.662 308.122 7.266.64 2.488-7.116 9.901-7.116 6.097 0 4.066 7.862 10.065 7.427 144.283-10.444 266.498-121.945 266.498-308.433-.001-94.157-37.672-178.48-97.088-235.171z"/><path d="M525.12 589.546c105.017 0 200.54-78.41 207.723-137.311 3.483-28.557-38.844-82.723-58.985-94.232-26.034 28.275-94.296 38.696-161.489 38.124-75.707-.644-143.506-12.948-162.928-36.686-13.308 6.834-54.309 35.247-55.519 84.345-1.31 53.159 112.539 145.76 231.198 145.76z"/><path d="M511.273 901.493c3.658-.082 4.129 1.422 4.872 3.559 1.079 3.102 3.102 4.046 5.115 3.932 67.499-3.817 127.924-31.032 174.94-75.624 44.239-41.956 73.506-98.024 85.464-163.253C736.546 793.57 632.261 874.84 515.606 874.84c-68.802 0-135.459-28.635-187.693-80.634-45.725-45.52-78.104-106.47-92.69-173.735 3.931 79.245 31.199 147.849 79.455 199.357 47.671 50.881 114.014 82.433 186.808 88.844.222.019.43.03.625.03 1.415 0 3.785-.683 4.459-3.515.482-2.027-.563-3.694 4.703-3.694z"/><path d="M506.484 377.616h9.577v527.951h-9.577z"/><path d="M458.742 165.251c-.496.028-.741.18-.792.246-6.423 8.027-9.35 17.124-9.35 22.179 0 6.324 23.8 13.151 62.25 13.151 38.451 0 62.252-6.827 62.252-13.151 0-4.289-1.528-11.617-8.809-22.183-.025-.032-.2-.175-.558-.225-.358-.051-.729.02-.953.166-2.48 1.635-7.176 2.431-14.354 2.431-6.733 0-14.663-.705-21.66-1.327-5.934-.527-11.53-1.024-15.556-1.024-3.843 0-9.257.438-15.526.945-7.5.608-15.867 1.286-22.744 1.286-7.263 0-11.656-.744-13.429-2.275-.121-.104-.417-.219-.771-.219z"/><path d="M309.724 689.599c-23.699 0-44.629 12.45-57.274 31.474 16.424 45.88 42.21 84.002 74.3 113.806 30.383-8.02 52.889-37 52.889-71.533 0-40.73-31.302-73.747-69.915-73.747zm17.189-159.297c-12.913 32.184-40.68 52.692-52.214 44.069-18.581-13.892-22.77-40.751-9.857-72.935 12.913-32.184 34.218-51.157 56.619-43.612 13.797 4.647 18.365 40.294 5.452 72.478z"/><path d="M321.46 457.824c-8.373-2.82-16.593-1.93-24.279 1.965 5.578 15.611 18.105 33.076 35.637 50.017 4.662-25.341-.469-48.315-11.358-51.982zm261.221 12.452c0 31.208-31.302 44.29-69.915 44.29-38.613 0-69.915-13.082-69.915-44.29s31.302-64.652 69.915-64.652c38.613 0 69.915 33.444 69.915 64.652z"/><path d="M670.704 597.248a58.422 46.616 76.256 1 0 90.563-22.15 58.422 46.616 76.256 1 0-90.563 22.15zM645.893 752.81c-32.795 0-59.38 28.729-59.38 64.169 0 31.108 20.486 57.039 47.672 62.915 25.775-13.249 49.441-30.482 70.129-51.479a69.47 69.47 0 0 0 .959-11.436c0-35.439-26.586-64.169-59.38-64.169z"/><path d="M453.2 246.867a60.693 35.966 0 1 0 121.386 0 60.693 35.966 0 1 0-121.386 0z"/><path d="M424.147 199.168c-15.952 0-35.104 8.59-51.233 22.979-17.409 15.533-28.486 35.404-28.908 51.862-.174 6.812 8.296 20.331 9.818 21.726 4.78 3.333 11.459 5.13 19.228 5.13 16.846 0 36.001-8.117 51.243-21.714 25.182-22.466 32.006-51.86 24.056-67.297-1.028-1.513-13.5-11.786-19.99-12.472a40.925 40.925 0 0 0-4.214-.214z"/><path d="M418.261 198.772c-12.122 0-30.184 9.125-46.014 23.248-22.153 19.764-34.022 44.135-25.918 53.218 2.1 2.354 5.398 3.547 9.806 3.547 12.122 0 30.183-9.125 46.014-23.247 22.153-19.764 34.022-44.135 25.918-53.219-2.1-2.355-5.398-3.547-9.806-3.547z"/><path d="M350.016 270.036a19.303 48.548 48.262 1 0 72.452-64.64 19.303 48.548 48.262 1 0-72.452 64.64z"/><path d="M404.289 242.731c6.494-6.059 17.264-20.321 17.803-30.212.474-8.681-10.485-13.668-27.967-1.464-18.069 12.614 3.67 37.735 10.164 31.676z"/><path d="M350.654 281.395c4.046 1.079 10.075.261 12.948-.337 3.507 6.474 8.565 14.229 14.634 19.624-5.597.809-12.611-.135-16.387-1.349-2.155-2.873-10.048-13.892-11.195-17.938z"/><path d="M432.995 217.06c-1.169 4.226-3.709 9.733-5.328 12.611 6.009 5.506 14.027 13.285 18.208 20.568 3.709-6.609 5.125-16.41 5.575-21.175-3.057-2.968-14.544-9.981-18.455-12.004z"/><path d="M353.936 247.586c-1.798 4.136-3.012 12.094 1.506 17.017 4.214 4.591 13.69 4.316 17.466 3.709-2.731 2.225-16.995 5.799-21.58 1.214-5.259-5.26-2.067-14.567 2.608-21.94z"/><path d="M467.86 168.303c-1.551 1.416-8.295 18.95-7.89 26.907 2.428.944 10.592 2.637 16.432 3.462 0 0 4.271-26.39 5.417-30.504-1.888.202-12.813.27-13.959.135zm95.356-1.641c1.551 1.416 8.092 16.365 7.688 24.322-2.338 1.798-6.879 3.956-12.633 5.17 0 0-3.147-22.884-4.676-27.739 1.439.135 8.092-.944 9.621-1.753z"/><path d="M548.335 168.64c.944 0 4.586-.225 5.26-.225 1.663 4.136 4.586 26.39 4.676 27.739-.719.27-5.71 1.439-6.699 1.439-.09-.854-1.978-23.243-3.237-28.953zm-61.323-.742c-.944 0-4.518.27-5.193.27-1.663 4.136-5.215 29.043-5.305 30.392.719.27 6.272.899 7.261.899.09-.855 1.978-25.851 3.237-31.561zm50.881-68.482c4.99-1.652 13.626-3.844 14.971-3.945 4.104 1.343 8.059 3.439 9.003 8.699 1.095 6.1 2.293 12.139 3.911 15.511-1.079.27-2.145.667-2.967.674-1.753-3.507-2.807-6.6-8.092-12.914-5.024-6.002-13.42-7.823-16.826-8.025z"/><path d="M609.922 199.168c-1.439 0-2.858.073-4.213.216-6.491.686-18.962 10.959-20.035 12.548-7.907 15.362-1.081 44.755 24.1 67.221 15.239 13.595 34.395 21.713 51.244 21.714h.002c7.768.001 14.444-1.798 19.314-5.199 1.433-1.328 9.903-14.847 9.728-21.659-.422-16.458-11.5-36.33-28.907-51.861-16.127-14.39-35.282-22.98-51.233-22.98z"/><path d="M615.808 198.772c-4.407 0-7.707 1.193-9.806 3.546-3.768 4.223-3.313 12.218 1.248 21.935 4.828 10.289 13.591 21.401 24.669 31.286 15.831 14.122 33.891 23.247 46.015 23.247h.002c4.404 0 7.703-1.193 9.804-3.547 8.103-9.084-3.766-33.455-25.917-53.218-15.83-14.124-33.893-23.249-46.015-23.249z"/><path d="M684.052 270.043a48.548 19.303 41.738 1 0-72.453-64.639 48.548 19.303 41.738 1 0 72.453 64.64z"/><path d="M629.78 242.731c-6.494-6.059-17.264-20.321-17.803-30.212-.474-8.681 10.485-13.668 27.967-1.464 18.07 12.614-3.67 37.735-10.164 31.676z"/><path d="M683.415 281.395c-4.046 1.079-10.075.261-12.948-.337-3.507 6.474-8.565 14.229-14.634 19.624 5.597.809 12.611-.135 16.387-1.349 2.155-2.873 10.048-13.892 11.195-17.938z"/><path d="M601.074 217.06c1.169 4.226 3.709 9.733 5.328 12.611-6.009 5.506-14.027 13.285-18.208 20.568-3.709-6.609-5.125-16.41-5.575-21.175 3.057-2.968 14.544-9.981 18.455-12.004z"/><path d="M680.133 247.586c1.798 4.136 3.012 12.094-1.506 17.017-4.214 4.591-13.69 4.316-17.466 3.709 2.731 2.225 16.995 5.799 21.58 1.214 5.26-5.26 2.068-14.567-2.608-21.94z"/><path d="M256.89 280.802l98.657 66.065 2.743-3.489-84.927-72.168-5.141 2.796s-27.783-54.986-23.078-76.636c.872-4.014-4.386-11.673-6.443-1.53-6.326 31.197 23.432 81.367 23.432 81.367l-5.243 3.595z"/><path d="M913.539 608.983c-6.179-5.062-52.839-49.612-55.395-61.004-.465-2.074-47.752-15.667-74.288-23.141-13.974-62.727-42.562-117.972-87.503-159.971-4.951-4.627-12.584-10.786-18.422-14.861a168.709 168.709 0 0 0 12.558-17.073l77.848-52.131-5.243-3.595s29.758-50.17 23.432-81.367c-2.057-10.142-7.315-2.484-6.443 1.53 4.705 21.65-23.078 76.636-23.078 76.636l-5.141-2.796-51.114 43.434c8.662-17.89 15.764-40.398 17.212-67.408 2.489-46.489-11.374-88.164-39.036-117.348-25.318-26.713-60.19-41.425-98.188-41.425-8.674 0-17.491.786-26.21 2.336-50.973 9.062-69.126 41.797-73.971 53.165-10.993 1.024-21.124 2.824-22.592 5.989-.722.538-1.235 1.262-1.432 2.081-.491 2.049-2.107 8.797-2.248 9.549-.094.503-8.599 16.41-9.621 22.211-10.432-25.755-27.984-37.131-40.173-44.804-11.209-7.057-29.787-8.88-34.616 1.132-2.714 5.626 5.229 5.89 7.822 3.405 5.799-5.556 11.685-3.964 17.886-2.343 18.358 4.802 41.77 24.14 47.023 47.924a194.583 194.583 0 0 0-13.968 5.969 44.792 44.792 0 0 0-4.493-.226c-1.788 0-5.774.494-8.101.777-12.89.95-30.23 9.947-45.955 23.975-19.481 17.381-30.721 37.158-29.443 49.849-.354 1.525-.936 3.675-.956 4.445-.217 8.471 9.487 23.85 11.572 25.307 5.596 3.91 13.131 5.977 21.789 5.977 17.876 0 38.106-8.527 54.115-22.81 23.958-21.373 34.948-53.216 25.021-72.493-1.077-2.091-9.859-9.424-17.459-12.936a191.249 191.249 0 0 1 11.302-4.584c9.875 12.385 58.7 12.783 64.82 12.783 6.114 0 54.834-.397 64.787-12.74a191.63 191.63 0 0 1 17.967 7.72c-5.746 3.647-10.915 8.183-11.723 9.755-9.928 19.277 1.062 51.121 25.019 72.494 16.01 14.282 36.239 22.808 54.116 22.81h.004c8.655 0 16.189-2.066 21.786-5.978 2.084-1.457 11.787-16.838 11.572-25.307-.044-1.715-.369-3.699-.697-5.579 1.773.623 4.498 1.11 6.219 1.11.407 0 .818-.02 1.231-.06 3.891-.378 7.561-2.627 10.963-6.674-5.827 40.766-24.562 69.308-37.921 85.084-.437-.244-1.695-1.036-3.033-1.889l.566-.379-.375-.181-.29.497c-1.925-1.227-3.977-2.556-3.977-2.556l-.113.125s-9.18 9.763-13.224 11.611c-30.353 20.267-86.385 23.114-133.626 23.114-3.082 0-6.179-.014-9.287-.04-79.391-.676-129.764-5.521-152.309-28.289l-2.042-2.062-2.68 1.113c-14.361 5.966-27.07 14.849-37.773 26.401-26.802 28.927-47.871 62.872-62.62 100.891-6.249 16.109-11.215 32.647-14.926 49.523-26.932 7.606-70.931 20.32-71.38 22.321-2.556 11.393-49.216 55.942-55.395 61.004-5.352 4.384.206 12 6.287 9.406 9.522-4.062 40.584-50.461 51.99-66.626 1.222-1.731 5.6 2.21 6.233 1.124 2.54-1.611 35.982-8.949 59.624-14.002-3.6 20.145-5.429 40.737-5.429 61.651 0 44.101 6.926 85.255 20.393 122.452-20.03 16.955-46.51 39.839-46.558 42.362-.228 12.106 12.528 43.583-6.581 82.489 7.939 6.1-16.065 22.463-23.036 24.012-11.819 2.626-4.647 13.942 5.422 10.844 3.42-1.052 14.018-20.516 23.52-27.013 1.858-1.271 4.052.157 4.163-.097 18.13-39.241 1.446-72.591 4.257-86.361 2.17-2.294 24.236-20.146 43.039-35.256 13.488 33.248 32.39 63.119 56.46 88.811 48.393 51.653 115.699 83.68 189.519 90.18.423.037.818.054 1.187.054 6.009 0 7.525-4.401 8.173-6.28.088-.255.208-.604.306-.835.13-.02.329-.039.614-.039.249 0 .346.033.347.033.174.149.602.965.886 1.505 1.085 2.064 3.104 5.907 8.365 5.907.25 0 .509-.009.779-.029 74.16-5.368 141.712-37.179 190.21-89.573 24.304-26.256 43.294-56.891 56.698-91.064 19.139 15.373 42.461 34.225 44.694 36.586 2.811 13.77-13.873 47.12 4.257 86.361.111.253 2.305-1.174 4.163.097 9.502 6.497 20.1 25.961 23.52 27.013 10.069 3.098 17.241-8.218 5.422-10.844-6.971-1.549-30.975-17.912-23.036-24.012-19.109-38.905-6.352-70.383-6.581-82.489-.049-2.597-28.121-26.781-48.321-43.853 12.855-36.807 19.475-77.442 19.475-120.961 0-21.106-1.921-41.945-5.605-62.261 23.704 5.05 59.837 12.934 62.482 14.611.633 1.085 5.012-2.855 6.233-1.124 11.406 16.165 42.468 62.564 51.99 66.626 6.083 2.598 11.641-5.018 6.289-9.402zM372.247 222.019c15.83-14.123 33.892-23.248 46.014-23.248 4.408 0 7.706 1.193 9.806 3.547 8.104 9.084-3.765 33.455-25.918 53.219-15.831 14.122-33.892 23.247-46.014 23.247-4.408 0-7.706-1.193-9.806-3.547-8.104-9.082 3.765-33.453 25.918-53.218zm76.104-10.164c7.95 15.437 1.126 44.831-24.056 67.297-15.242 13.597-34.397 21.714-51.243 21.714-7.769 0-14.448-1.798-19.228-5.13-1.152-1.055-6.849-10.488-8.708-17.176 2.687 2.295 6.381 3.462 11.019 3.462 13.069 0 31.526-9.222 48.169-24.069 24.271-21.654 35.965-47.849 25.506-58.308 3.922 1.471 17.596 10.82 18.541 12.21zm227.445-78.998c15.734 16.6 26.824 37.423 32.852 60.92-.069.139-.161.264-.2.421-4.027 16.323-15.253 15.317-28.421 12.493-3.526-.757-6.617-1.935-8.749-1.759-4.317-13.305-11.05-26.065-19.804-37.351-.002-.012.002-.023 0-.035.647-.773 3.707-1.94 5.968-2.802 6.763-2.578 16.025-6.109 19.186-15.033 1.708-4.822 1.32-10.491-1.095-17.117.086.09.177.173.263.263zm-8.927-8.527c.035.084.039.174.087.255 5.766 9.934 7.652 17.903 5.604 23.685-2.493 7.043-10.345 10.036-16.655 12.441-2.787 1.062-5.481 2.096-7.143 3.493-.735-.881-1.464-1.768-2.224-2.628-6.822-7.714-14.321-14.208-22.298-19.396a44.713 44.713 0 0 1 1.611-.457c6.201-1.622 12.086-3.213 17.886 2.343 2.594 2.485 10.536 2.221 7.822-3.405-4.625-9.59-21.861-8.317-33.156-1.992a94.383 94.383 0 0 0-5.097-2.642c-.081-.071-.135-.162-.229-.223-1.06-.682.394-4.04 1.8-7.287 2.533-5.854 6.004-13.873 2.721-22.015-1.663-4.122-4.82-7.767-9.559-11.013 21.965 4.442 42.088 14.28 58.83 28.841zM555.284 95.048a145.828 145.828 0 0 1 25.455-2.269c4.943 0 9.825.277 14.642.784.191.188.416.349.679.459 9.454 3.946 15.352 8.689 17.532 14.094 2.611 6.469-.322 13.242-2.679 18.685-1.083 2.503-2.132 4.937-2.445 7.084-10.372-4.25-21.262-6.481-32.323-6.481-2.525 0-5.066.134-7.607.367-2.103-.006-3.92-3.67-6.024-7.909-4.034-8.135-9.655-19.444-24.59-20.408a121.643 121.643 0 0 1 17.36-4.406zm-58.521 31.132c5.536-6.423 13.853-13.929 25.786-20.201.057-.013.112 0 .169-.018 24.341-7.547 30.766 5.409 35.929 15.82 1.268 2.556 2.465 4.927 3.847 6.765a86.982 86.982 0 0 0-3.23.573c-14.073 2.859-19.462 9.646-21.524 14.606-13.345-1.136-26.805-1.11-27.08-1.11-.255 0-12.565.022-25.242.947 1.99-4.288 5.524-10.63 11.345-17.382zm14.087 74.647c-38.45 0-62.25-6.827-62.25-13.151 0-4.923 2.785-13.675 8.861-21.543 3.159 1.61 8.087 2.344 15.48 2.344 7.169 0 15.696-.69 23.225-1.3 5.896-.478 11.464-.93 15.046-.93 3.712 0 9.156.484 14.928.996 7.136.635 15.224 1.355 22.288 1.355 7.445 0 12.683-.808 16.254-2.52 6.934 10.248 8.419 17.392 8.419 21.6.001 6.322-23.8 13.149-62.251 13.149zm57.021-39.594a976.538 976.538 0 0 1-2.338-8.245c-.282-1.089-1.112-2.019-2.29-3.243-2.736-2.843-11.4-4.552-20.927-5.58 2.034-3.773 6.769-8.573 17.809-10.816a80.707 80.707 0 0 1 16.021-1.627c12.465 0 25.445 3.447 37.692 9.779-11.795 7.586-27.171 18.942-36.77 42.087-.803-4.934-9.008-21.732-9.197-22.355zm11.077 27.881c4.788-20.557 23.087-37.715 39.782-44.907 10.558 6.231 20.422 14.627 28.747 24.818.147.302.345.559.598.747 12.446 15.502 21.311 35.07 23.746 57.416a134.523 134.523 0 0 0-7.844-7.583c-16.642-14.847-35.099-24.07-48.169-24.07-2.678 0-6.968-.874-9.828-.547-2.109.241-5.37 1.282-7.977 2.61a195.203 195.203 0 0 0-19.055-8.484zm101.387 106.553c-4.87 3.401-11.546 5.2-19.314 5.199h-.002c-16.849-.001-36.005-8.119-51.244-21.714-25.181-22.466-32.007-51.859-24.1-67.221.94-1.827 13.36-11.224 18.998-12.368-4.984 5.556-5.566 14.956-.354 26.064 5.011 10.676 14.048 22.156 25.447 32.326 16.64 14.846 35.099 24.069 48.169 24.069h.002c4.928 0 8.783-1.329 11.504-3.921-1.955 7.079-7.923 16.471-9.106 17.566zm7.406-20.429c-2.101 2.354-5.399 3.547-9.804 3.547h-.002c-12.124 0-30.184-9.125-46.015-23.247-11.079-9.885-19.841-20.996-24.669-31.286-4.56-9.717-5.016-17.712-1.248-21.935 2.099-2.353 5.399-3.546 9.806-3.546 12.122 0 30.184 9.125 46.015 23.248 22.151 19.764 34.02 44.135 25.917 53.219zm24.189-19.771c-3.602 6.001-7.374 9.233-11.216 9.606-2.129.213-5.236-.581-7.554-1.786-1.449-8.878-7.285-19.846-16.551-30.778-.477-7.563-1.775-15.158-3.842-22.628 1.383-.038 4.2.568 6.357 1.031 3.454.741 7.953 1.704 12.571 1.704 7.086 0 14.441-2.295 18.725-11.14 2.942 14.385 4.083 29.655 3.232 45.53a179.366 179.366 0 0 1-.583 7.568c-.456.16-.871.447-1.139.893zm75.906 345.069c0 43.52-6.66 82.952-18.699 117.973-1.204 2.129-2.838 9.319-4.135 11.271-41.914 108.17-136.719 171.448-243.664 179.189a6.26 6.26 0 0 1-.467.017c-5.428 0-3.665-7.445-9.598-7.445-7.12 0-2.995 7.154-9.093 7.154a8.96 8.96 0 0 1-.808-.038c-105.018-9.247-200.118-70.982-242.848-177.511-.472-2.338-2.106-6.913-4.215-11.135-12.586-35.295-19.599-75.199-19.599-119.475 0-21.458 1.967-42.401 5.691-62.628.329-2.592 1.636-6.841 2.801-13.587 12.831-56.539 39.586-106.873 75.973-146.146 10.709-11.558 22.985-19.832 36.263-25.348 24.439 24.68 78.831 28.917 155.339 29.568 3.121.027 6.229.041 9.324.041 55.793 0 111.047-5.232 135.07-23.127 5.462-4.069 12.747-9.56 12.747-9.56s17.845 10.859 22.831 15.616c42.637 40.682 74.073 95.594 88.43 158.157.521 3.95 1.501 10.16 2.842 13.79a345.656 345.656 0 0 1 5.815 63.224z"/><path d="M459.88 152.784c.239-.742.981-.49 1.97-.196 2.28.678 6.152 1.361 11.746 1.361 6.829 0 15.147-.671 22.596-1.272 6.304-.51 11.75-.95 15.625-.95 4.053 0 9.643.493 15.561 1.016 6.961.615 14.849 1.313 21.55 1.313 5.113 0 8.969-.676 11.667-1.244 1.098-.232 1.792-.027 1.897.457l.023-.006c.308 1.382 2.242 9.082 1.548 9-.695-.082-7.576 2.124-15.729 2.124-6.541 0-14.152-1.329-21.073-1.944-6.021-.535-11.707-1.04-15.925-1.04-4.017 0-9.512.445-15.993.969-7.3.591-15.575 1.261-22.277 1.261-8.806 0-13.192-1.874-15.35-1.698.114-.707 1.925-8.41 2.164-9.151z"/><path d="M547.475 154.05c.944 0 4.482-.033 5.516-.123 1.144 2.819.883 8.33.613 10.173-.94.204-4.102.286-5.27.286-.091-.853.4-4.626-.859-10.336zm-59.731-.653c-.944 0-4.627.3-5.638.368-.719 4.676-.433 7.799-.163 9.642 1.214.067 4.023-.233 5.27-.368-.27-1.169-.279-3.944.531-9.642z"/><path d="M510.851 362.618c-111.886 0-164.661-3.031-171.011-55.864-.101 1.567-.184 3.133-.184 4.685 0 60.275 64.098 68.137 171.117 69.048 90.366.769 171.117-8.773 171.117-69.048 0-.144-.016-.29-.017-.434-10.829 46.029-64.875 51.613-171.022 51.613z"/></svg>