<?xml version="1.0" standalone="no"?><!DOCTYPE svg PUBLIC "-//W3C//DTD SVG 1.1//EN" "http://www.w3.org/Graphics/SVG/1.1/DTD/svg11.dtd"><svg t="1584589645684" class="icon" viewBox="0 0 1024 1024" version="1.1" xmlns="http://www.w3.org/2000/svg" p-id="8712" xmlns:xlink="http://www.w3.org/1999/xlink" width="200" height="200"><defs><style type="text/css"></style></defs><path d="M731.181414 838.633673a98.935913 98.935913 0 0 0-9.33955-4.748924l-193.281201-125.213292c49.705403-39.574365 94.978477-99.569103 101.152078-171.119556a23.428024 23.428024 0 0 0 1.26638-7.123385v-126.63797a23.586322 23.586322 0 0 0 0-5.698708 245.614341 245.614341 0 0 0-491.197023 5.698708v126.63797a23.744619 23.744619 0 0 0 0 5.223816c5.540411 74.241509 52.871352 135.977519 104.634622 175.710182L40.054698 848.923008l-3.16595 1.108082a63.318985 63.318985 0 0 0-31.659492 49.547105v68.859396a55.087517 55.087517 0 0 0 54.612624 55.404112H722.316756a55.087517 55.087517 0 0 0 54.612624-55.404112v-68.701098c0-17.729316-9.181253-40.207555-45.747966-61.10282z m-1.741272 129.803918a7.598278 7.598278 0 0 1-7.123386 7.914873H59.84188a7.598278 7.598278 0 0 1-7.123385-7.914873v-68.542801a15.829746 15.829746 0 0 1 4.274031-5.382113l1.89957-0.949785 234.596837-157.347677a23.586322 23.586322 0 0 0 6.806791-6.806791 23.428024 23.428024 0 0 0 5.540411-6.015303 23.744619 23.744619 0 0 0-7.914873-32.609277c-51.13008-31.659492-110.808223-94.186989-110.808223-169.061689v-117.931609a197.871827 197.871827 0 0 1 395.743654 0 23.902917 23.902917 0 0 0 0 4.748924v108.117166a23.902917 23.902917 0 0 0 0 4.748924c0 73.60832-56.353896 135.027735-109.066951 167.953607a23.744619 23.744619 0 0 0-7.598278 32.767574 23.428024 23.428024 0 0 0 5.382113 5.857006l1.89957 1.582975 254.38402 164.945955a11.555715 11.555715 0 0 1 1.582975 5.382113z" fill="" p-id="8713"></path><path d="M1014.058977 713.103786a25.169296 25.169296 0 0 0-9.33955-10.922525 300.765177 300.765177 0 0 0-28.335245-19.787183L788.643392 552.748458c54.454327-41.632232 104.634622-103.843135 110.808223-175.23529a23.586322 23.586322 0 0 0 0-5.382114v-126.637969a245.361065 245.361065 0 0 0-427.403145-164.62936 23.744619 23.744619 0 1 0 35.142036 31.659493 197.871827 197.871827 0 0 1 344.930168 132.969867v118.723096c0 69.967478-60.46963 132.653273-116.981824 167.953607a25.327594 25.327594 0 0 0 0 41.15734L970.84377 736.215215a17.412721 17.412721 0 0 1 0 5.698709v68.859396a7.914873 7.914873 0 0 1-7.914873 7.914873h-108.117166a23.744619 23.744619 0 0 0 0 47.489238h108.117166a55.404111 55.404111 0 0 0 55.404112-55.404111v-69.334288a66.484934 66.484934 0 0 0-4.274032-28.335246z" fill="" p-id="8714"></path></svg>