<?xml version="1.0" standalone="no"?><!DOCTYPE svg PUBLIC "-//W3C//DTD SVG 1.1//EN" "http://www.w3.org/Graphics/SVG/1.1/DTD/svg11.dtd"><svg t="1585208486437" class="icon" viewBox="0 0 1024 1024" version="1.1" xmlns="http://www.w3.org/2000/svg" p-id="2237" xmlns:xlink="http://www.w3.org/1999/xlink" width="200" height="200"><defs><style type="text/css"></style></defs><path d="M924.378072 205.405183 99.621928 205.405183c-19.514449 0-35.347043 15.820314-35.347043 35.346019s15.832594 35.346019 35.347043 35.346019l70.693062 0 0 577.332984c0 60.682058 62.201667 106.039082 117.822452 106.039082l447.725114 0c55.505152 0 94.257757-43.60717 94.257757-106.039082L830.120314 276.098245l94.257757 0c19.514449 0 35.347043-15.820314 35.347043-35.346019S943.892521 205.405183 924.378072 205.405183zM759.426229 853.43123c0 16.131399-4.096295 35.346019-23.564695 35.346019L288.137443 888.777249c-22.022573 0-47.12939-18.823718-47.12939-35.346019L241.008053 276.098245l518.418176 0L759.426229 853.43123z" p-id="2238"></path><path d="M405.959895 134.713144l212.08021 0c19.514449 0 35.347043-15.820314 35.347043-35.346019S637.554554 64.020082 618.040105 64.020082L405.959895 64.020082c-19.514449 0-35.347043 15.820314-35.347043 35.346019S386.445446 134.713144 405.959895 134.713144z" p-id="2239"></path><path d="M394.177548 829.866534c19.514449 0 35.347043-15.832594 35.347043-35.346019L429.52459 370.353956c0-19.525706-15.832594-35.346019-35.347043-35.346019-19.514449 0-35.347043 15.820314-35.347043 35.346019l0 424.166559C358.830505 814.034964 374.663098 829.866534 394.177548 829.866534z" p-id="2240"></path><path d="M606.257757 829.866534c19.514449 0 35.347043-15.832594 35.347043-35.346019L641.6048 370.353956c0-19.525706-15.832594-35.346019-35.347043-35.346019-19.514449 0-35.347043 15.820314-35.347043 35.346019l0 424.166559C570.910715 814.034964 586.743308 829.866534 606.257757 829.866534z" p-id="2241"></path></svg>