<?xml version="1.0" standalone="no"?><!DOCTYPE svg PUBLIC "-//W3C//DTD SVG 1.1//EN" "http://www.w3.org/Graphics/SVG/1.1/DTD/svg11.dtd"><svg t="1590134115599" class="icon" viewBox="0 0 1024 1024" version="1.1" xmlns="http://www.w3.org/2000/svg" p-id="6080" xmlns:xlink="http://www.w3.org/1999/xlink" width="400" height="400"><defs><style type="text/css"></style></defs><path d="M774 976H266c-107.616 0-202-94.384-202-202V234c0-102.56 90.624-186 202-186h214v128H266c-35.584 0-74 22.176-74 58v540c0 36.656 37.344 74 74 74h508c35.824 0 58-38.4 58-74V496h128v278c0 111.392-83.44 202-186 202z" fill="#3BA9F6" p-id="6081"></path><path d="M544 112c0 35.344-28.656 64-64 64H352c-35.344 0-64-28.656-64-64s28.656-64 64-64h128c35.344 0 64 28.656 64 64zM960 514c0 34.24-27.76 62-62 62h-4c-34.24 0-62-27.76-62-62v-20c0-34.24 27.76-62 62-62h4c34.24 0 62 27.76 62 62v20zM854.4 303.648L722.512 169.36 391.456 494.48 368 518.32c-97.328 214.992-16.944 185.776 6.672 180 46.336-11.328 63.584-25.392 134.576-57.056l14.096-12.48L854.4 303.648zM763.76 122.464l18.816-19.424c36.288-37.456 89.92-44.384 119.76-15.456l30.976 30c29.856 28.928 24.656 82.736-11.616 120.208l-18.832 19.424" fill="#3BA9F6" p-id="6082"></path></svg>