<?xml version="1.0" standalone="no"?><!DOCTYPE svg PUBLIC "-//W3C//DTD SVG 1.1//EN" "http://www.w3.org/Graphics/SVG/1.1/DTD/svg11.dtd"><svg t="1573453584376" class="icon" viewBox="0 0 1024 1024" version="1.1" xmlns="http://www.w3.org/2000/svg" p-id="10756" xmlns:xlink="http://www.w3.org/1999/xlink" width="200" height="200"><defs><style type="text/css"></style></defs><path d="M661 505.1H363c-89.8 0-162.9-73.1-162.9-162.9V316c0-89.8 73.1-162.9 162.9-162.9h305.9c13.6 52.7 61.6 91.8 118.6 91.8 67.5 0 122.4-54.9 122.4-122.4S855 0 787.5 0c-56.9 0-104.9 39.1-118.6 91.8H363c-59.9 0-116.1 23.3-158.5 65.6-42.3 42.3-65.6 98.6-65.6 158.5v26.2c0 59.9 23.3 116.1 65.6 158.5 42.3 42.3 98.6 65.6 158.5 65.6h298c89.8 0 162.9 73.1 162.9 162.9C823.9 819 750.8 892 661 892H358.6c-4.9-63.1-57.8-112.9-122.1-112.9-67.5 0-122.4 54.9-122.4 122.4S169 1024 236.5 1024c49 0 91.4-29 111-70.7H661c59.9 0 116.1-23.3 158.5-65.6 42.3-42.3 65.6-98.6 65.6-158.5 0-59.9-23.3-116.1-65.6-158.5-42.4-42.3-98.7-65.6-158.5-65.6zM787.5 61.2c33.8 0 61.2 27.5 61.2 61.2 0 33.8-27.5 61.2-61.2 61.2s-61.2-27.5-61.2-61.2 27.4-61.2 61.2-61.2z m-551 901.6c-33.8 0-61.2-27.5-61.2-61.2 0-33.8 27.5-61.2 61.2-61.2 33.8 0 61.2 27.5 61.2 61.2s-27.4 61.2-61.2 61.2z" fill="" p-id="10757"></path></svg>