<?xml version="1.0" standalone="no"?><!DOCTYPE svg PUBLIC "-//W3C//DTD SVG 1.1//EN" "http://www.w3.org/Graphics/SVG/1.1/DTD/svg11.dtd"><svg t="1573454529611" class="icon" viewBox="0 0 1024 1024" version="1.1" xmlns="http://www.w3.org/2000/svg" p-id="19263" xmlns:xlink="http://www.w3.org/1999/xlink" width="200" height="200"><defs><style type="text/css"></style></defs><path d="M894.5 647.2h-65.3v-84c0-46.7-37.3-84-84-84H530.6v-46.7h130.6c36.4 0 65.3-28.9 65.3-65.3V162c0-36.4-28.9-65.3-65.3-65.3H344c-36.4 0-65.3 28.9-65.3 65.3v205.3c0 36.4 28.9 65.3 65.3 65.3h130.6v46.7h-196c-46.7 0-84 37.3-84 84v84h-65.3c-36.4 0-65.3 28.9-65.3 65.3v149.3c0 36.4 28.9 65.3 65.3 65.3h224c36.4 0 65.3-28.9 65.3-65.3V712.5c0-36.4-28.9-65.3-65.3-65.3H250.6v-84c0-15.9 12.1-28 28-28h466.6c15.9 0 28 12.1 28 28v84H670.5c-36.4 0-65.3 28.9-65.3 65.3v149.3c0 36.4 28.9 65.3 65.3 65.3h223.9c36.4 0 65.3-28.9 65.3-65.3V712.5c0.1-36.4-28.8-65.3-65.2-65.3z m-615.9 56h74.7c5.6 0 9.3 3.7 9.3 9.3v149.3c0 5.6-3.7 9.3-9.3 9.3h-224c-5.6 0-9.3-3.7-9.3-9.3V712.5c0-5.6 3.7-9.3 9.3-9.3h149.3zM344 376.6c-5.6 0-9.3-3.7-9.3-9.3V162c0-5.6 3.7-9.3 9.3-9.3h317.3c5.6 0 9.3 3.7 9.3 9.3v205.3c0 5.6-3.7 9.3-9.3 9.3H344z m559.8 485.2c0 5.6-3.7 9.3-9.3 9.3h-224c-5.6 0-9.3-3.7-9.3-9.3V712.5c0-5.6 3.7-9.3 9.3-9.3h223.9c5.6 0 9.3 3.7 9.3 9.3v149.3z m0 0" p-id="19264"></path></svg>