<?xml version="1.0" standalone="no"?><!DOCTYPE svg PUBLIC "-//W3C//DTD SVG 1.1//EN" "http://www.w3.org/Graphics/SVG/1.1/DTD/svg11.dtd"><svg t="1573454575080" class="icon" viewBox="0 0 1028 1024" version="1.1" xmlns="http://www.w3.org/2000/svg" p-id="20210" xmlns:xlink="http://www.w3.org/1999/xlink" width="200.78125" height="200"><defs><style type="text/css"></style></defs><path d="M935.31593 513.305595c0.195971-5.487175 0.823076-10.856767 0.823076-16.383136C936.139006 251.861318 737.464088 53.1864 492.402948 53.1864S48.666889 251.861318 48.666889 496.922459c0 222.152187 163.439417 405.639389 376.537766 438.111704 8.701091 16.853465 18.871962 32.785869 30.17946 47.836405C202.151004 963.900622 2.476636 752.899158 2.476636 494.825574c0-270.576503 219.349808-489.926311 489.926312-489.926311s489.926311 219.349808 489.926311 489.926311c0 20.067382-1.567764 39.723225-3.919411 59.143905a341.067101 341.067101 0 0 0-43.093918-40.663884z" p-id="20211"></path><path d="M1015.213113 988.671296c0 12.836069-11.464276 24.163166-24.437525 24.163166-14.521416 0-11.738634-6.525818-11.738634-19.401082v-0.80348h-0.823076c-11.248708-97.044604-95.084898-175.491605-195.343419-180.273285a108.058147 108.058147 0 0 1-22.791372 0c-101.747896 5.643951-181.5079 82.895532-195.343419 180.273285v0.80348c0 13.678743 1.254211 19.401082-11.719037 19.401082a24.457121 24.457121 0 0 1-24.457122-24.163166v-6.035892c0-1.52857 0-3.037543 0.764285-4.546516 12.228561-83.83619 67.237487-155.600596 145.919653-188.072913-45.837506-30.98294-74.86074-83.091502-74.86074-139.746581 0-46.836955 16.794674-86.854136 49.639333-119.346049 33.628542-33.236601 74.116052-49.854901 121.482128-49.854902 93.967866 0 171.141059 76.291325 171.141059 169.200951a167.456813 167.456813 0 0 1-74.880337 139.746581c79.466048 33.217004 135.983947 105.745695 145.919653 191.090859l0.764285 4.546516v0.744688c0 0.764285 0 1.52857 0.764285 1.52857h-0.764285l0.764285 0.744688z m-110.174629-338.382305c0-37.116817-13.36519-67.649025-39.233299-93.223178-25.868109-25.574153-57.57614-38.782567-94.281419-38.782567-36.724876 0-68.432907 13.208413-94.301017 38.782567-25.868109 25.574153-39.213702 56.106361-39.213702 93.223178 0 71.764406 60.907639 132.005745 133.514719 132.005746l-0.019598-0.13718c67.21789 0 133.534315-59.261487 133.534316-131.868566zM683.768165 275.84811l42.310036-41.918095 42.310036 41.918095-42.310036 41.937692-42.310036-41.937692z m-465.116443 1.508973l43.231098-42.741171 43.231097 42.741171-43.231097 42.741172-43.231098-42.741172z m80.563483 438.640825l-42.310037 41.937692-42.310036-41.937692 42.310036-41.937692 42.310037 41.937692zM492.402948 176.373472a19.597052 19.597052 0 0 1 19.597052 19.597052v289.056524h-39.194105V195.970524a19.597052 19.597052 0 0 1 19.597053-19.597052z" p-id="20212"></path><path d="M200.896792 487.47668a19.597052 19.597052 0 0 1 19.597053-19.597053h289.056523v39.194105h-289.056523a19.597052 19.597052 0 0 1-19.597053-19.597052z" p-id="20213"></path></svg>