<?xml version="1.0" standalone="no"?><!DOCTYPE svg PUBLIC "-//W3C//DTD SVG 1.1//EN" "http://www.w3.org/Graphics/SVG/1.1/DTD/svg11.dtd"><svg t="1573454554339" class="icon" viewBox="0 0 1024 1024" version="1.1" xmlns="http://www.w3.org/2000/svg" p-id="20092" xmlns:xlink="http://www.w3.org/1999/xlink" width="200" height="200"><defs><style type="text/css"></style></defs><path d="M358.4 699.733333c-130.133333-23.466667-224-147.2-206.933333-285.866666 14.933333-108.8 100.266667-198.4 206.933333-217.6 81.066667-14.933333 155.733333 8.533333 211.2 55.466666 6.4 6.4 14.933333 6.4 23.466667 2.133334 12.8-6.4 14.933333-25.6 4.266666-34.133334-55.466667-46.933333-128-74.666667-206.933333-70.4-149.333333 8.533333-273.066667 128-283.733333 277.333334-10.666667 155.733333 98.133333 288 243.2 315.733333 10.666667 2.133333 21.333333-4.266667 23.466666-14.933333 4.266667-12.8-2.133333-25.6-14.933333-27.733334z" p-id="20093"></path><path d="M330.666667 554.666667l89.6-89.6c4.266667-4.266667 6.4-10.666667 6.4-14.933334v-128c0-10.666667-8.533333-21.333333-21.333334-21.333333s-21.333333 10.666667-21.333333 21.333333v121.6l-83.2 83.2c-8.533333 8.533333-8.533333 21.333333 0 29.866667 6.4 6.4 21.333333 6.4 29.866667-2.133333zM740.266667 571.733333c40.533333-27.733333 66.133333-72.533333 66.133333-123.733333 0-83.2-66.133333-149.333333-149.333333-149.333333s-149.333333 66.133333-149.333334 149.333333c0 51.2 25.6 96 64 121.6-102.4 40.533333-157.866667 153.6-160 260.266667 0 10.666667 4.266667 23.466667 12.8 32 8.533333 8.533333 19.2 12.8 29.866667 12.8h403.2c10.666667 0 21.333333-4.266667 29.866667-12.8 8.533333-8.533333 12.8-19.2 12.8-32-2.133333-104.533333-61.866667-217.6-160-258.133334zM550.4 448c0-59.733333 46.933333-106.666667 106.666667-106.666667s106.666667 46.933333 106.666666 106.666667-46.933333 106.666667-106.666666 106.666667-106.666667-46.933333-106.666667-106.666667z m-96 384c2.133333-113.066667 72.533333-234.666667 202.666667-234.666667 121.6 0 200.533333 121.6 202.666666 234.666667h-405.333333z" p-id="20094"></path></svg>