<?xml version="1.0" standalone="no"?><!DOCTYPE svg PUBLIC "-//W3C//DTD SVG 1.1//EN" "http://www.w3.org/Graphics/SVG/1.1/DTD/svg11.dtd"><svg t="1584580500657" class="icon" viewBox="0 0 1024 1024" version="1.1" xmlns="http://www.w3.org/2000/svg" p-id="6584" xmlns:xlink="http://www.w3.org/1999/xlink" width="200" height="200"><defs><style type="text/css"></style></defs><path d="M258.449609 440.865913a29.395303 29.395303 0 0 1 0-58.790605h498.383994a29.395303 29.395303 0 0 1 0 58.790605H258.449609zM258.449609 645.742264a29.395303 29.395303 0 0 1 0-58.790605h498.383994a29.395303 29.395303 0 0 1 0 58.790605H258.449609z" fill="" p-id="6585"></path><path d="M258.449609 850.618616a29.395303 29.395303 0 0 1 0-58.790606h498.383994a29.395303 29.395303 0 0 1 0 58.790606H258.449609z" fill="" p-id="6586"></path><path d="M127.316018 1017.001118a49.055797 49.055797 0 0 1-48.992171-48.992171V54.845781c0-26.977507 21.951038-48.992171 48.992171-48.992171h586.379024l8.589536 8.589537c11.834472 11.834472 75.333416 70.116068 126.361626 116.881322 50.837331 46.638002 81.250652 74.506276 87.040636 80.359885l8.589536 8.589537V968.008947c0 26.977507-21.951038 48.992171-48.992171 48.992171H127.316018z m9.798435-58.790605h748.49857V292.298745h-207.866782a29.395303 29.395303 0 0 1-29.395303-29.395303V64.644215H137.114453v893.566298z m569.963464-724.702373h165.93712l-62.353673-57.263577c-34.040015-31.240462-68.779918-63.05356-94.16677-86.595253l-9.480303-8.716789v152.575619z" fill="" p-id="6587"></path></svg>