<?xml version="1.0" standalone="no"?><!DOCTYPE svg PUBLIC "-//W3C//DTD SVG 1.1//EN" "http://www.w3.org/Graphics/SVG/1.1/DTD/svg11.dtd"><svg t="1584580362093" class="icon" viewBox="0 0 1024 1024" version="1.1" xmlns="http://www.w3.org/2000/svg" p-id="5210" xmlns:xlink="http://www.w3.org/1999/xlink" width="200" height="200"><defs><style type="text/css"></style></defs><path d="M281.6 404.945455c-11.636364 0-23.272727-9.309091-23.272727-23.272728 0-11.636364 9.309091-23.272727 23.272727-23.272727h330.472727c11.636364 0 23.272727 9.309091 23.272728 23.272727 0 11.636364-9.309091 23.272727-23.272728 23.272728H281.6zM281.6 553.890909c-11.636364 0-23.272727-9.309091-23.272727-23.272727 0-11.636364 9.309091-23.272727 23.272727-23.272727h209.454545c11.636364 0 23.272727 9.309091 23.272728 23.272727 0 11.636364-9.309091 23.272727-23.272728 23.272727h-209.454545z" p-id="5211"></path><path d="M409.6 900.654545H162.909091c-25.6 0-46.545455-20.945455-46.545455-46.545454V162.909091c0-25.6 20.945455-46.545455 46.545455-46.545455h614.4c25.6 0 46.545455 20.945455 46.545454 46.545455v276.945454c0 13.963636-9.309091 23.272727-23.272727 23.272728s-23.272727-9.309091-23.272727-23.272728V162.909091H162.909091v691.2h246.690909c13.963636 0 23.272727 9.309091 23.272727 23.272727s-9.309091 23.272727-23.272727 23.272727z" p-id="5212"></path><path d="M521.309091 902.981818l-16.290909-9.309091c-13.963636-9.309091-23.272727-23.272727-23.272727-39.563636V768c0-34.909091 25.6-65.163636 60.50909-69.818182H605.090909l-2.327273-2.327273-2.327272-2.327272c-20.945455-23.272727-32.581818-51.2-32.581819-81.454546 0-34.909091 13.963636-67.490909 39.563637-90.763636 4.654545-4.654545 11.636364-9.309091 18.618182-13.963636 2.327273-2.327273 6.981818-4.654545 9.309091-4.654546 2.327273-2.327273 6.981818-2.327273 9.30909-4.654545 18.618182-6.981818 39.563636-9.309091 60.509091-6.981819 37.236364 4.654545 69.818182 25.6 90.763637 55.854546 4.654545 4.654545 6.981818 11.636364 9.309091 16.290909 0 2.327273 2.327273 4.654545 2.327272 6.981818 2.327273 9.309091 4.654545 13.963636 4.654546 20.945455 0 4.654545 2.327273 11.636364 2.327273 16.290909v18.618182c-2.327273 16.290909-11.636364 37.236364-27.927273 62.836363l-2.327273 2.327273c-2.327273 2.327273-4.654545 4.654545-4.654545 6.981818h46.545454c41.890909 0 74.472727 32.581818 74.472727 74.472727v83.781819c0 20.945455-13.963636 37.236364-32.581818 44.218181H525.963636l-4.654545 2.327273z m6.981818-48.872727h325.818182v-83.781818c0-16.290909-11.636364-27.927273-27.927273-27.927273h-100.072727v-65.163636l9.309091-6.981819c4.654545-2.327273 9.309091-6.981818 11.636363-9.30909 16.290909-23.272727 18.618182-34.909091 20.945455-41.89091v-4.654545-4.654545-9.309091c0-4.654545-2.327273-6.981818-2.327273-11.636364 0-2.327273 0-2.327273-2.327272-4.654545-2.327273-4.654545-4.654545-6.981818-6.981819-11.636364-11.636364-18.618182-32.581818-32.581818-55.854545-34.909091-13.963636-2.327273-25.6 0-37.236364 4.654545-2.327273 0-4.654545 2.327273-6.981818 2.327273-2.327273 0-2.327273 2.327273-4.654545 2.327273-4.654545 2.327273-9.309091 6.981818-11.636364 9.309091-16.290909 13.963636-25.6 34.909091-25.6 55.854545 0 18.618182 6.981818 34.909091 18.618182 48.872728l-16.290909 18.618181 16.290909-16.290909 6.981818 6.981818c2.327273 2.327273 4.654545 2.327273 4.654545 4.654546l11.636364 6.981818v65.163636h-104.727273c-13.963636 2.327273-20.945455 11.636364-20.945454 25.6v81.454546z" p-id="5213"></path></svg>