<?xml version="1.0" standalone="no"?><!DOCTYPE svg PUBLIC "-//W3C//DTD SVG 1.1//EN" "http://www.w3.org/Graphics/SVG/1.1/DTD/svg11.dtd"><svg t="1584580218720" class="icon" viewBox="0 0 1024 1024" version="1.1" xmlns="http://www.w3.org/2000/svg" p-id="3210" xmlns:xlink="http://www.w3.org/1999/xlink" width="200" height="200"><defs><style type="text/css"></style></defs><path d="M943.69522332 533.62535446c-9.74248103-193.22586666-147.76095722-355.6005448-334.63944989-398.70364117-12.69474797-2.95226694-25.9799486 4.8712399-28.93221554 18.15644175-2.95226694 12.69474797 4.8712399 25.9799486 18.15644175 28.78460177 165.76978519 38.0842427 288.58408656 182.89293297 297.44088739 354.56725204 0.4428401 13.13758807 11.80906777 23.47052176 24.94665462 22.43722779 13.28520063-0.8856802 23.61813553-12.10429409 23.02768167-25.24188218zM390.58802461 141.26908726C207.54747907 194.55750478 79.41909648 362.83671559 79.41909648 556.50542356c0 42.0698024 5.90453388 83.69676592 17.56598788 123.25714149 3.9855597 12.69474797 17.12314778 20.07541472 29.81789575 16.08985501 12.69474797-3.83794715 20.07541472-17.12314778 16.0898538-29.81789575-10.33293369-35.57481586-15.64701491-72.47815202-15.6470137-109.52910075 0-172.11715918 113.95750176-321.79708935 276.33217869-369.32858675 12.69474797-3.9855597 20.07541472-17.12314778 16.08985502-29.81789453-3.24749327-12.69474797-16.38508134-20.07541472-29.07982931-16.08985502z m-181.56441267 723.45299749c80.1540451 78.82552601 188.35462675 123.69998158 303.19780751 123.69998158 123.69998158 0 239.72407008-52.4027373 320.91141036-142.88971609 8.85680082-9.74248103 8.26634695-24.94665462-1.91897418-33.80345546-9.74248103-8.85680082-24.94665462-8.26634695-33.80345545 1.91897297-72.33053825 80.1540451-175.06942612 127.24270239-285.63181963 127.24270239-102.29604777 0-198.09710778-40.15082943-269.54196582-110.11955461-4.42839981-4.57601358-10.62816123-6.93782665-16.97553521-6.93782664-6.34737398 0.14761377-12.39952043 2.80465317-16.82792145 7.38066674-9.15202716 9.00441339-9.15202716 24.20858819 0.59045387 33.50822912z m288.14124646-576.28249415c69.52588508 0 126.20940842-56.24068445 126.20940964-126.2094084s-56.24068445-126.20940842-126.20940964-126.20940843c-69.52588508 0-126.20940842 56.24068445-126.20940841 126.20940843s56.68352455 126.20940842 126.20940841 126.2094084z m0-47.8267225c-43.10309637 0-78.23507214-35.27958953-78.23507213-78.23507214 0-43.10309637 35.27958953-78.23507214 78.23507213-78.23507213s78.23507214 35.27958953 78.23507214 78.23507213-35.13197575 78.23507214-78.23507214 78.23507214zM147.46884748 900.88735449c69.52588508 0 126.20940842-56.24068445 126.20940964-126.20940964s-56.24068445-126.20940842-126.20940964-126.20940841-126.20940842 56.24068445-126.20940841 126.20940841S77.5001223 900.88735449 147.46884748 900.88735449z m0-47.97433751c-43.10309637 0-78.23507214-35.27958953-78.23507213-78.23507213s35.27958953-78.23507214 78.23507213-78.23507214c43.10309637 0 78.23507214 35.27958953 78.23507214 78.23507214s-35.27958953 78.23507214-78.23507214 78.23507213z m728.76707871 19.18973452c69.52588508 0 126.20940842-56.24068445 126.20940841-126.20940842 0-69.52588508-56.24068445-126.20940842-126.20940841-126.20940841s-126.20940842 56.24068445-126.20940964 126.20940841c0.59045388 69.37827131 56.83113711 126.20940842 126.20940964 126.20940842z m0-47.97433629c-43.10309637 0-78.23507214-35.27958953-78.23507214-78.23507213 0-43.10309637 35.27958953-78.23507214 78.23507214-78.23507214 43.10309637 0 78.23507214 35.27958953 78.23507214 78.23507214s-34.68913565 78.23507214-78.23507214 78.23507213z m0 0" p-id="3211"></path></svg>