<?xml version="1.0" standalone="no"?><!DOCTYPE svg PUBLIC "-//W3C//DTD SVG 1.1//EN" "http://www.w3.org/Graphics/SVG/1.1/DTD/svg11.dtd"><svg t="1590135624855" class="icon" viewBox="0 0 1024 1024" version="1.1" xmlns="http://www.w3.org/2000/svg" p-id="3492" xmlns:xlink="http://www.w3.org/1999/xlink" width="400" height="400"><defs><style type="text/css"></style></defs><path d="M934 362h-97.16c3.328-9.392 5.16-19.488 5.16-30 0-49.624-40.376-90-90-90-10.32 0-20.232 1.768-29.472 4.984L535.496 11.344a30 30 0 0 0-46.992 0L301.472 246.976A89.6 89.6 0 0 0 272 242c-49.624 0-90 40.376-90 90 0 10.512 1.832 20.608 5.16 30H90C40.376 362 0 402.376 0 452v262.92c0 34.304 19.064 65.152 49.704 80.472l448.832 225.416a29.984 29.984 0 0 0 26.928 0l448.784-225.392A89.512 89.512 0 0 0 1024 714.92V452c0-49.624-40.376-90-90-90zM752 302a30.032 30.032 0 0 1 30 30A30.032 30.032 0 0 1 752 362a30.032 30.032 0 0 1-30-30A30.032 30.032 0 0 1 752 302zM512 78.256l163.648 206.176A89.456 89.456 0 0 0 662 332c0 10.512 1.832 20.608 5.16 30h-310.32c3.328-9.392 5.16-19.488 5.16-30 0-17.456-5.008-33.76-13.648-47.568L512 78.256zM272 302a30.032 30.032 0 0 1 30 30A30.032 30.032 0 0 1 272 362a30.032 30.032 0 0 1-30-30A30.032 30.032 0 0 1 272 302z m692 412.92c0 11.44-6.36 21.712-16.632 26.856L512 960.424 76.584 741.76A29.84 29.84 0 0 1 60 714.92V452a30.032 30.032 0 0 1 30-30h844a30.032 30.032 0 0 1 30 30v262.92zM773.208 610.784l-120-120a30 30 0 1 0-42.424 42.424l68.792 68.792H572a30 30 0 0 0 0 60h107.576l-68.792 68.792a30 30 0 1 0 42.424 42.424l120-120a30.064 30.064 0 0 0 0-42.432zM452 602H344.424l68.792-68.792a30 30 0 1 0-42.424-42.424l-120 120a30.04 30.04 0 0 0 0 42.432l120 120a30 30 0 1 0 42.424-42.424l-68.792-68.792H452a30 30 0 0 0 0-60z" fill="#20A0FF" p-id="3493"></path></svg>