<?xml version="1.0" standalone="no"?><!DOCTYPE svg PUBLIC "-//W3C//DTD SVG 1.1//EN" "http://www.w3.org/Graphics/SVG/1.1/DTD/svg11.dtd"><svg t="1590135648671" class="icon" viewBox="0 0 1024 1024" version="1.1" xmlns="http://www.w3.org/2000/svg" p-id="5559" xmlns:xlink="http://www.w3.org/1999/xlink" width="400" height="400"><defs><style type="text/css"></style></defs><path d="M375.466667 588.8h-2.133334v162.133333l138.666667 78.933334 138.666667-78.933334v-162.133333h-2.133334L512 667.733333z" fill="#00C1DE" p-id="5560"></path><path d="M407.466667 569.6l104.533333 59.733333 104.533333-59.733333-104.533333-59.733333zM802.133333 322.133333l-138.666666-81.066666-134.4 78.933333 138.666666 78.933333v162.133334l134.4-78.933334z" fill="#00C1DE" p-id="5561"></path><path d="M633.6 544v-125.866667l-108.8-61.866666v125.866666zM499.2 356.266667l-108.8 61.866666v125.866667l108.8-61.866667z" fill="#00C1DE" p-id="5562"></path><path d="M494.933333 320l-134.4-78.933333-140.8 81.066666v160l136.533334 78.933334v-162.133334z" fill="#00C1DE" p-id="5563"></path><path d="M343.466667 106.666667H106.666667v236.8h51.2V157.866667h185.6z" fill="#00C1DE" p-id="5564"></path><path d="M157.866667 866.133333v-185.6H106.666667V917.333333h236.8v-51.2z" fill="#00C1DE" p-id="5565"></path><path d="M917.333333 106.666667H680.533333v51.2h185.6v185.6H917.333333V106.666667z" fill="#00C1DE" p-id="5566"></path><path d="M866.133333 680.533333v185.6h-185.6V917.333333H917.333333V680.533333z" fill="#00C1DE" p-id="5567"></path></svg>