<?xml version="1.0" standalone="no"?><!DOCTYPE svg PUBLIC "-//W3C//DTD SVG 1.1//EN" "http://www.w3.org/Graphics/SVG/1.1/DTD/svg11.dtd"><svg t="1584587849106" class="icon" viewBox="0 0 1024 1024" version="1.1" xmlns="http://www.w3.org/2000/svg" p-id="7323" xmlns:xlink="http://www.w3.org/1999/xlink" width="200" height="200"><defs><style type="text/css"></style></defs><path d="M620.66357422 961.0578125c-34.60078125 0-63.54580078-20.57167969-79.51552735-56.50400391-7.20878906-16.19121094-15.24902344-21.34863281-20.68330078-23.78847656-9.53789062-4.38046875-16.5796875-3.16054687-25.72910156 3.82587891-7.37490234 5.60039063-12.30996094 11.81074219-15.02666016 18.96416015-16.35820312 42.14267578-59.66455078 64.10039063-104.52392578 55.5609375-42.80800781-8.04023438-76.90957031-23.01152344-104.3024414-45.69082031-19.74023438-16.41357422-31.05175781-35.04462891-34.60078125-57.05859375-3.04980469-19.01953125 1.71914063-35.1 6.26572265-46.96611328 3.71513672-9.81474609 6.54345703-17.91035156 6.21035157-25.39599609-0.38847656-7.31953125-5.878125-13.80673828-12.58681641-14.6944336-12.91992188-1.71914063-26.3390625 1.27529297-39.59121094 4.32509766-37.20673828 8.48408203-70.25537109-3.71513672-92.76855468-33.76933594-23.78759766-31.66171875-37.26210938-67.48242188-39.97968751-106.46367187-3.04980469-42.75263672 15.63662109-75.02431641 52.62275391-90.7163086 13.19677734-5.60039063 22.23544922-13.69599609 27.55898438-24.67529297 4.71357422-9.70400391 1.940625-14.30595703-1.0538086-17.79960937-10.42470703-12.53144531-15.47050781-15.58125-17.578125-16.35820313C72.70419922 465.27646484 55.73603516 410.38085937 66.10537109 365.85458984c6.48808594-28.05820313 16.41357422-60.49599609 40.42353516-88.22109375 23.89921875-27.50361328 53.28808594-37.48447266 85.22753906-28.33505859l5.98886719 1.71914062c9.87011719 2.88369141 18.35419922 5.32353516 25.89521484 5.32353516 26.3390625-1.66376953 27.33662109-16.30195313 27.78046875-22.56855469l0.66533203-10.6461914c0.27685547-2.27373047-0.38847656-18.90878906-2.38447265-26.89365235-8.59482422-34.1015625 2.66132813-65.98564453 31.77333984-89.6633789 28.83427734-23.51074219 63.93427734-37.040625 110.51279297-42.58564453 38.26054688-4.60195313 67.81552734 13.30839844 84.33984375 48.57451171 5.43427734 11.42314453 9.759375 18.18808594 14.97128906 23.23388672 13.03066406 12.58681641 39.20361328 5.21191406 47.29921875-11.58925781 4.8796875-10.09160156 11.20078125-20.18408203 18.74179688-30.05419922 18.07646484-23.45537109 44.97011719-34.32392578 75.35742187-29.94345703 28.2796875 4.21435547 64.93271484 12.42070312 96.5390625 38.70439453 18.02109375 14.97128906 35.54384766 32.77089844 41.25498047 60.93984375 4.10361328 20.23945313-1.82988281 37.20673828-6.21035156 49.57294922-2.82832031 8.15097656-3.88125 15.24902344-3.21591797 22.34619141 1.05380859 11.64462891 12.36533203 22.67929687 23.73310547 23.06689453 10.09160156-0.83144531 19.96171875-1.71914063 28.83427734-5.43427735 12.19921875-5.04580078 24.3984375-7.59638672 36.20917969-7.59638671 19.29638672 0 47.07773438 6.70957031 70.08925781 38.75976562 21.51474609 29.99882813 34.04619141 65.54267578 38.42666016 108.62753906 3.82587891 37.48447266-15.52587891 68.64785156-53.01035156 85.39365235-8.04023438 3.60439453-14.30595703 7.98486328-19.46337891 13.5852539-6.65419922 7.09804687-9.31552734 16.41357422-7.54101562 25.72910157 1.71914063 9.14941406 7.59638672 16.69042969 16.02509765 20.73867187 15.24902344 7.15341797 32.54941406 16.96816406 45.63544922 34.93388672 15.41513672 20.96015625 20.73867188 45.91318359 15.80361328 74.02587891-4.32509766 25.17451172-13.25302734 62.27050781-40.47890625 93.37851562-25.72910156 29.38886719-53.73105469 35.59921875-72.69521484 35.59921875-8.04023438 0-16.35820312-1.10917969-24.61992188-3.21591797-13.86298828-3.60439453-28.11357422-7.04179688-42.41953125-4.26972656-6.04423828 1.10917969-13.75136719 9.81474609-14.13984375 16.08046875-0.72070313 10.48007813 0.22148437 18.02109375 2.9944336 24.28681641 18.02109375 40.64501953 4.21435547 87.16816406-33.54697266 113.11875-29.44423828 20.18408203-62.54824219 32.88164062-98.4796875 37.70595703-3.99462891 0.55371094-7.93125 0.77519531-11.75800781 0.77519531zM510.31777344 814.16972656c12.25458984 0 24.56455078 2.71669922 36.59677734 8.15097656 23.17851562 10.53544922 40.92275391 29.44423828 52.78886719 56.22626954 8.20634766 18.40957031 17.79960937 18.40957031 20.96015625 18.40957031l3.21591797-0.22148438c26.22832031-3.49365234 49.35058594-12.36533203 70.75458984-27.05976562 9.31552734-6.37646484 17.85498047-19.24101562 11.20078125-34.32392578-9.31552734-21.07089844-9.26015625-41.19960938-8.37333984-54.50800782 2.43984375-35.70996094 31.77333984-68.53623047 66.70634765-74.85820312 25.45136719-4.60283203 50.40439453 0.27685547 69.81152344 5.26816406 9.09404297 2.27373047 16.91191406 5.93349609 33.10400391-12.53144531 12.80917969-14.58369141 20.68330078-33.76933594 25.56298828-62.10439453 2.38447266-13.640625-0.88681641-20.40556641-4.38046875-25.17451172-4.43583984-6.09960938-11.75537109-10.36933594-21.34863281-14.91591797-27.11513672-12.80917969-45.91318359-37.09599609-51.56894532-66.59560547-5.65576172-29.61035156 2.9390625-59.27607422 23.51074219-81.34541015 10.97929687-11.86611328 24.12070313-21.23789062 40.20117188-28.50117188 16.85654297-7.48564453 16.02509766-15.30439453 15.5258789-20.4609375-3.21591797-31.66171875-11.97773437-57.05859375-26.78291015-77.68564453-8.65019531-12.03310547-15.41513672-12.03310547-17.96572266-12.03310547-3.32666016 0-7.26416016 0.88681641-11.58925781 2.71669922-16.52431641 6.87568359-33.71396484 10.36933594-50.90361328 10.36933594-48.79599609-1.77451172-86.16972656-37.53984375-90.16259766-81.51152344-1.44140625-16.30195313 0.72070313-32.43867187 6.65419922-49.23984375 2.16298828-6.26572266 4.43583984-12.6984375 3.82587891-15.63662109-1.71914063-8.37333984-8.15097656-15.02666016-19.40800782-24.3984375-15.35976562-12.75380859-34.76777344-20.07333984-65.04345703-24.56455078-7.59638672-0.44384766-11.20078125 0.66533203-14.97128906 5.54501953-4.93505859 6.43183594-8.92792969 12.75380859-11.92148438 18.90878906-15.96972656 33.159375-50.40439453 54.61875-87.6665039 54.61875-23.4 0-45.41396484-8.81630859-61.99365235-24.84140625-13.86298828-13.47451172-22.06933594-28.77890625-28.33505859-41.97568359-5.821875-12.47607422-11.58925781-12.47607422-15.35976562-12.47607422-37.37373047 4.26972656-61.99365234 13.36376953-81.0131836 28.83427734-12.42070312 10.14697266-11.92148438 17.07890625-10.03623047 24.45380859 2.99443359 12.08847656 4.49121094 37.20673828 4.49121094 37.20673829l0.11074219 1.8852539-1.10917969 18.46494141c-3.27128906 46.57851563-36.81914063 78.79482422-85.55976562 82.01074219l-6.21035157 0.16611328c-16.63505859 0-31.05175781-4.15898438-43.75019531-7.8741211l-5.60039063-1.60839843c-6.37646484-0.72070313-11.03466797-0.83144531-19.29638671 8.65019531-14.80517578 17.07890625-21.459375 39.31435547-26.44980469 60.77373047-3.16054687 13.58525391-0.94306641 36.26455078 18.18808594 43.02949218 19.62949219 6.93105469 34.60078125 22.67929687 45.46933593 35.65458985 20.73867188 24.84140625 24.17607422 56.559375 9.48164063 86.94580078-12.25458984 25.22988281-32.49404297 43.91630859-60.16376953 55.67167969-8.31796875 3.54902344-15.08291016 8.04023438-13.6959961 27.2258789 1.82988281 26.50517578 10.97929687 50.84824219 27.22587891 72.47373047 10.53544922 14.02910156 17.79960937 11.97773437 27.17050781 9.8147461 18.74179688-4.32509766 40.03505859-8.42871094 62.4366211-5.43427735 37.53984375 4.93505859 66.20800781 36.59765625 68.09326172 75.24580078 0.88681641 19.79560547-4.60195313 36.0984375-10.31396485 51.12509766-2.55058594 6.76494141-3.38203125 10.81318359-2.82832031 14.02910156 0.72070313 4.65820313 2.71669922 10.03623047 12.25458984 17.96572266 18.96416016 15.74824219 42.91875 25.89521484 75.24580078 31.99482422 2.60595703 0.49921875 5.21191406 0.72070313 7.81875 0.72070312 18.57568359 0 23.4-12.30996094 24.95302735-16.35820312 6.98642578-18.24345703 19.18564453-34.1015625 36.0984375-46.96611328 16.97080078-12.86367187 35.21425781-19.35175781 54.34453125-19.35175782z" p-id="7324"></path><path d="M508.65400391 726.89169922c-117.22236328 0-212.92910156-96.76054688-213.31757813-215.64667969-0.38847656-119.38447266 93.37851563-214.03828125 213.5390625-215.53505859 119.71757813 0 215.70205078 96.26132812 216.64423828 214.59287109 0.9984375 118.27529297-95.31914063 215.42431641-214.64824218 216.58886719h-2.21748047z m2.9390625-367.08134766c-86.44746094 1.05380859-152.43310547 67.48330078-152.1553711 151.2131836 0.27685547 83.67451172 67.20556641 151.76777344 149.2171875 151.76777343h1.55302735c84.06298828-0.83144531 151.87851563-68.98007813 151.21318359-151.93388671-0.66621094-83.28691406-67.87265625-151.04707031-149.82802734-151.04707032z" p-id="7325"></path></svg>