<svg class="icon" viewBox="0 0 1024 1024" xmlns="http://www.w3.org/2000/svg" width="200" height="200"><defs><style/></defs><path d="M320 192c35.296 0 64 28.704 64 64s-28.704 64-64 64-64-28.704-64-64 28.704-64 64-64m0 192c70.592 0 128-57.408 128-128s-57.408-128-128-128-128 57.408-128 128 57.408 128 128 128m416 64h-96a31.904 31.904 0 0 0-22.624 9.376L512 562.752 406.624 457.376A31.904 31.904 0 0 0 384 448h-96c-88.224 0-160 71.776-160 160v192h96v96h64V736h-96V608c0-52.928 43.072-96 96-96h82.752L512 653.248 653.248 512H736c52.928 0 96 43.072 96 96v128h-96v160h64v-96h96V608c0-88.224-71.776-160-160-160m-32-256c35.296 0 64 28.704 64 64s-28.704 64-64 64-64-28.704-64-64 28.704-64 64-64m0 192c70.592 0 128-57.408 128-128s-57.408-128-128-128-128 57.408-128 128 57.408 128 128 128"/></svg>