<?xml version="1.0" standalone="no"?><!DOCTYPE svg PUBLIC "-//W3C//DTD SVG 1.1//EN" "http://www.w3.org/Graphics/SVG/1.1/DTD/svg11.dtd"><svg t="1590134026245" class="icon" viewBox="0 0 1024 1024" version="1.1" xmlns="http://www.w3.org/2000/svg" p-id="2354" xmlns:xlink="http://www.w3.org/1999/xlink" width="400" height="400"><defs><style type="text/css"></style></defs><path d="M513.137778 126.862222c51.863704 0 102.115556 10.145185 149.428148 30.151111 45.700741 19.342222 86.755556 47.028148 122.026667 82.29926 35.271111 35.271111 62.957037 76.325926 82.299259 122.026666 20.005926 47.312593 30.151111 97.564444 30.151111 149.428148s-10.145185 102.115556-30.151111 149.428149c-19.342222 45.700741-47.028148 86.755556-82.299259 122.026666-35.271111 35.271111-76.325926 62.957037-122.026667 82.299259-47.217778 20.100741-97.564444 30.340741-149.428148 30.340741S411.022222 884.622222 363.70963 864.616296c-45.700741-19.342222-86.755556-47.028148-122.026667-82.299259-35.271111-35.271111-62.957037-76.325926-82.299259-122.026667-20.005926-47.312593-30.151111-97.564444-30.151111-149.428148S139.377778 408.651852 159.383704 361.339259c19.342222-45.700741 47.028148-86.755556 82.299259-122.026666 35.271111-35.271111 76.325926-62.957037 122.026667-82.29926 47.312593-20.005926 97.659259-30.151111 149.428148-30.151111m0-42.666666c-235.614815 0-426.666667 191.051852-426.666667 426.666666s191.051852 426.666667 426.666667 426.666667 426.666667-191.051852 426.666666-426.666667-190.957037-426.666667-426.666666-426.666666z" p-id="2355"></path><path d="M712.343704 532.195556h-398.222223c-11.757037 0-21.333333-9.576296-21.333333-21.333334s9.576296-21.333333 21.333333-21.333333h398.222223c11.757037 0 21.333333 9.576296 21.333333 21.333333s-9.576296 21.333333-21.333333 21.333334z" p-id="2356"></path><path d="M513.232593 731.306667c-11.757037 0-21.333333-9.576296-21.333334-21.333334v-398.222222c0-11.757037 9.576296-21.333333 21.333334-21.333333s21.333333 9.576296 21.333333 21.333333v398.222222c0 11.757037-9.576296 21.333333-21.333333 21.333334z" p-id="2357"></path></svg>