<?xml version="1.0" standalone="no"?><!DOCTYPE svg PUBLIC "-//W3C//DTD SVG 1.1//EN" "http://www.w3.org/Graphics/SVG/1.1/DTD/svg11.dtd"><svg t="1590134042289" class="icon" viewBox="0 0 1024 1024" version="1.1" xmlns="http://www.w3.org/2000/svg" p-id="2483" xmlns:xlink="http://www.w3.org/1999/xlink" width="400" height="400"><defs><style type="text/css"></style></defs><path d="M866.4 395.7H643V172.3c-2.9-39.9-34.6-71.6-74.5-74.5H494c-39.9 2.9-71.6 34.6-74.5 74.5v223.4H196.2c-39.9 2.9-71.6 34.6-74.5 74.5v74.5c2.9 39.9 34.6 71.6 74.5 74.5h223.4v223.4c2.9 39.9 34.6 71.6 74.5 74.5h74.5c39.9-2.9 71.6-34.6 74.5-74.5V619.1h223.4c39.9-2.9 71.6-34.6 74.5-74.5v-74.5c0-19.8-7.8-38.7-21.8-52.7-14.1-13.9-33-21.7-52.8-21.7z m0 0" fill="#39B54A" p-id="2484"></path></svg>