<?xml version="1.0" standalone="no"?><!DOCTYPE svg PUBLIC "-//W3C//DTD SVG 1.1//EN" "http://www.w3.org/Graphics/SVG/1.1/DTD/svg11.dtd"><svg t="1587101446281" class="icon" viewBox="0 0 1024 1024" version="1.1" xmlns="http://www.w3.org/2000/svg" p-id="3339" xmlns:xlink="http://www.w3.org/1999/xlink" width="400" height="400"><defs><style type="text/css"></style></defs><path d="M512 0C509.22737 0 233.998135 0.744223 0.474686 62.806013l0 448.145592 0 0.555059c0.426285 5.818792 7.917359 93.944367 71.873454 198.890444 38.799054 63.68345 90.436396 120.723068 153.473313 169.588668 78.332562 60.735866 174.603736 108.920298 286.177659 143.20961 111.247992-34.224481 207.295367-82.192219 285.488498-142.665208 62.998729-48.715512 114.646728-105.606819 153.524823-169.071798 64.377051-105.154779 72.076827-194.23772 72.511993-199.957933l0-0.555059L1023.524426 62.806013C790.008081 0.744223 514.783287 0 512 0L512 0zM980.89147 509.655876c-1.121663 11.583411-10.407574 88.34227-66.23672 179.533546-36.173848 59.059144-84.369825 112.091682-143.250462 157.618048-71.129231 55.015652-158.355167 99.290694-259.414056 131.706128-101.271144-32.459838-188.700453-76.903618-260.048155-132.21767C192.992168 800.596383 144.816616 747.411093 108.751116 688.213406 53.085379 596.86849 44.159146 521.011047 43.107642 509.730476L43.107642 96.028724C262.681798 43.616964 508.546202 42.640061 511.999112 42.634732c3.447581 0.005329 249.31465 0.976903 468.89147 53.393992L980.89147 509.655876z" p-id="3340"></path><path d="M300.757943 433.1519l0-180.576168 231.755254 0 0 63.623948L342.643124 316.199679l0 44.322999 189.870073 0 0 60.108871L384.617114 420.631549l0 152.442236 43.5024 0L428.119515 465.21032l253.383009 0 0 107.187626 43.583217 0 0-151.766397L575.937445 420.631549l0-60.108871 192.132937 0 0-44.322999L575.937445 316.199679l0-63.623948c67.517352 0 133.71322-12.13847 192.132937-22.288497l-40.102776-41.341667c-101.78091 24.726315-203.073367 19.940376-471.79909 19.940376l0 224.265956c2.802825 101.122832-9.44488 156.069212-44.59298 203.142639 7.812564 22.989203 16.520326 44.062788 22.300042 64.308668C278.879746 641.031632 303.560768 550.898965 300.757943 433.1519L300.757943 433.1519 300.757943 433.1519zM724.091075 700.310136l26.160587-40.671156c-47.648023-16.91464-174.361286-87.339612-174.361286-87.339612L575.959647 492.449053l-43.182686 0-0.1119 79.850315c-33.113476 22.784942-113.573911 62.768713-180.635671 86.997696 9.451097 17.10558 9.327652 20.931489 17.419077 41.043268 95.902615-30.475836 183.755545-88.890224 183.755545-88.890224S638.624453 663.532384 724.091075 700.310136L724.091075 700.310136z" p-id="3341"></path></svg>