<svg class="icon" viewBox="0 0 1024 1024" xmlns="http://www.w3.org/2000/svg" width="200" height="200"><defs><style/></defs><path d="M959.965 223.039v238.189a533.078 533.078 0 0 1-33.917 187.697 601.553 601.553 0 0 1-235.502 294.313A549.525 549.525 0 0 1 512 1018.752a549.397 549.397 0 0 1-178.546-75.514A600.913 600.913 0 0 1 97.952 648.861a532.63 532.63 0 0 1-33.917-187.569V223.039a63.995 63.995 0 0 1 39.485-59.132L487.49 4.944a63.995 63.995 0 0 1 49.02 0l383.97 158.963a63.995 63.995 0 0 1 39.485 59.132zM512 505.64V95.88L163.1 241.342v264.3H512v415.327a414.496 414.496 0 0 0 128.95-59.387 491.802 491.802 0 0 0 103.672-96.057A513.944 513.944 0 0 0 860.9 505.704H512z"/></svg>