<?xml version="1.0" standalone="no"?><!DOCTYPE svg PUBLIC "-//W3C//DTD SVG 1.1//EN" "http://www.w3.org/Graphics/SVG/1.1/DTD/svg11.dtd"><svg t="1588838723713" class="icon" viewBox="0 0 1024 1024" version="1.1" xmlns="http://www.w3.org/2000/svg" p-id="1689" xmlns:xlink="http://www.w3.org/1999/xlink" width="400" height="400"><defs><style type="text/css"></style></defs><path d="M491.52 397.312v503.808c0 12.288-8.192 20.48-20.48 20.48s-20.48-8.192-20.48-20.48v-503.808l-47.104 47.104c-8.192 8.192-20.48 8.192-28.672 0s-8.192-20.48 0-28.672l96.256-96.256 96.256 96.256c8.192 8.192 8.192 20.48 0 28.672s-20.48 8.192-28.672 0l-47.104-47.104z m225.28 452.608v-503.808c0-12.288 8.192-20.48 20.48-20.48s20.48 8.192 20.48 20.48V849.92l47.104-47.104c8.192-8.192 20.48-8.192 28.672 0s8.192 20.48 0 28.672l-96.256 96.256-96.256-96.256c-8.192-8.192-8.192-20.48 0-28.672s20.48-8.192 28.672 0l47.104 47.104z m204.8-272.384c0 12.288-8.192 20.48-20.48 20.48s-20.48-8.192-20.48-20.48v-376.832c0-34.816-26.624-61.44-61.44-61.44h-614.4c-34.816 0-61.44 26.624-61.44 61.44v614.4c0 34.816 26.624 61.44 61.44 61.44h122.88c12.288 0 20.48 8.192 20.48 20.48s-8.192 20.48-20.48 20.48h-122.88c-57.344 0-102.4-45.056-102.4-102.4v-614.4c0-57.344 45.056-102.4 102.4-102.4h614.4c57.344 0 102.4 45.056 102.4 102.4v376.832z" p-id="1690"></path></svg>