<?xml version="1.0" standalone="no"?><!DOCTYPE svg PUBLIC "-//W3C//DTD SVG 1.1//EN" "http://www.w3.org/Graphics/SVG/1.1/DTD/svg11.dtd"><svg t="1596682576505" class="icon" viewBox="0 0 1024 1024" version="1.1" xmlns="http://www.w3.org/2000/svg" p-id="1166" xmlns:xlink="http://www.w3.org/1999/xlink" width="200" height="200"><defs><style type="text/css"></style></defs><path d="M813.67 237.7c-139.63-6.85-242.43-70.85-280.14-98a28 28 0 0 0-35.85 2.67c-78.08 76.14-226.93 91-287.3 93.79A27.94 27.94 0 0 0 183.76 264v270.7c0 37.84 19.73 89.23 51.08 141.4a14.19 14.19 0 0 0 27-6.11 14 14 0 0 0-3.65-9.3l0.14-0.09c-28.59-47.32-46.7-93.2-46.7-125.84V264c63.36-3 220.41-18.72 305.5-101.71 42.44 30.62 149.43 96.14 295.12 103.3v278.46c0 89.13-165.64 324.25-298.14 324.25-56 0-125-49.12-180.66-108.36-0.13-0.14-0.26-0.05-0.38-0.15a14.05 14.05 0 0 0-10.89-5.36 14.21 14.21 0 0 0-9.88 24.46s0 0.07 0.06 0.11c61.19 65.78 136 117.25 201.76 117.25 151.94 0 326-250 326.11-352.19V265.61a27.93 27.93 0 0 0-26.56-27.91z" fill="#3585F9" p-id="1167"></path><path d="M525.05 439.74m-70.5 0a70.5 70.5 0 1 0 141 0 70.5 70.5 0 1 0-141 0Z" fill="#BAD4FF" p-id="1168"></path><path d="M533.45 450.33m-82.91 0a82.91 82.91 0 1 0 165.82 0 82.91 82.91 0 1 0-165.82 0Z" fill="#BAD4FF" p-id="1169"></path><path d="M498.27 503.03m13.73 0l0.01 0q13.73 0 13.73 13.73l0 144.84q0 13.73-13.73 13.73l-0.01 0q-13.73 0-13.73-13.73l0-144.84q0-13.73 13.73-13.73Z" fill="#3585F9" p-id="1170"></path><path d="M512 526.42a99.57 99.57 0 1 1 99.56-99.57A99.68 99.68 0 0 1 512 526.42z m0-171.67a72.1 72.1 0 1 0 72.1 72.1 72.19 72.19 0 0 0-72.1-72.1z" fill="#3585F9" p-id="1171"></path></svg>