<?xml version="1.0" standalone="no"?><!DOCTYPE svg PUBLIC "-//W3C//DTD SVG 1.1//EN" "http://www.w3.org/Graphics/SVG/1.1/DTD/svg11.dtd"><svg t="1573455315380" class="icon" viewBox="0 0 1024 1024" version="1.1" xmlns="http://www.w3.org/2000/svg" p-id="23428" xmlns:xlink="http://www.w3.org/1999/xlink" width="200" height="200"><defs><style type="text/css"></style></defs><path d="M997.050207 862.311477 862.314037 862.311477 862.314037 997.047647C862.314037 1011.922519 850.241677 1023.99488 835.366804 1023.99488 820.491932 1023.99488 808.419571 1011.922519 808.419571 997.047647L808.419571 862.311477 673.683403 862.311477C658.808529 862.311477 646.736168 850.239117 646.736168 835.364244 646.736168 820.489372 658.808529 808.417011 673.683403 808.417011L808.419571 808.417011 808.419571 673.680843C808.419571 658.805969 820.491932 646.733608 835.366804 646.733608 850.241677 646.733608 862.314037 658.805969 862.314037 673.680843L862.314037 808.417011 997.050207 808.417011C1011.925079 808.417011 1023.99744 820.489372 1023.99744 835.364244 1023.99744 850.239117 1011.925079 862.311477 997.050207 862.311477ZM512 646.733608 404.211065 646.733608C216.415794 646.733608 63.598031 794.59308 54.759339 980.205625L47.483586 980.205625C51.310092 984.84055 53.897028 990.553363 53.897028 997.047647 53.897028 1011.922519 41.824667 1023.99488 26.949793 1023.99488 12.074921 1023.99488 0.00256 1011.922519 0.00256 997.047647 0.00256 990.553363 2.589494 984.84055 6.416002 980.205625L0.864872 980.205625C9.757458 764.843334 186.666048 592.839141 404.211065 592.839141L512 592.839141C583.517958 592.839141 650.481834 611.729152 708.687859 644.335304 690.633212 653.793784 674.114557 665.731408 659.509157 679.717022 614.668961 658.779022 564.816578 646.733608 512 646.733608ZM458.644478 538.944673 457.566588 538.944673C323.908308 538.944673 215.580429 430.616794 215.580429 296.958515L215.580429 241.986158C215.580429 108.327879 323.908308 0 457.566588 0L458.644478 0C592.302756 0 700.630636 108.327879 700.630636 241.986158L700.630636 296.958515C700.630636 430.616794 592.302756 538.944673 458.644478 538.944673ZM646.736168 242.525103C646.736168 138.347097 562.283538 53.894468 458.105532 53.894468 353.927527 53.894468 269.474897 138.347097 269.474897 242.525103L269.474897 296.419571C269.474897 400.597576 353.927527 485.050207 458.105532 485.050207 562.283538 485.050207 646.736168 400.597576 646.736168 296.419571L646.736168 242.525103Z" p-id="23429"></path></svg>