<svg class="icon" viewBox="0 0 1024 1024" xmlns="http://www.w3.org/2000/svg" width="200" height="200"><defs><style/></defs><path d="M409.6 128c113.152 0 204.8 93.056 204.8 208s-91.648 208-204.8 208c-113.152 0-204.8-93.056-204.8-208s91.648-208 204.8-208zm0 475.456c136.704 0 409.6 68.224 409.6 203.712V960H0V807.168C0 671.68 272.896 603.52 409.6 603.52zM887.488 960V792c0-115.456-133.12-197.248-276.288-214.464 24.832-3.008 74.368 0 94.592 0C842.496 577.536 1024 656.512 1024 792v168H887.488zM576 532.16A207.808 207.808 0 0 0 712.512 336c0-90.624-56.96-167.68-136.512-196.16 21.376-7.68 44.352-11.84 68.288-11.84 113.152 0 204.8 93.056 204.8 208s-91.648 208-204.8 208c-23.936 0-46.912-4.16-68.288-11.84z"/></svg>