<?xml version="1.0" standalone="no"?><!DOCTYPE svg PUBLIC "-//W3C//DTD SVG 1.1//EN" "http://www.w3.org/Graphics/SVG/1.1/DTD/svg11.dtd"><svg t="1586333930677" class="icon" viewBox="0 0 1024 1024" version="1.1" xmlns="http://www.w3.org/2000/svg" p-id="2196" xmlns:xlink="http://www.w3.org/1999/xlink" width="200" height="200"><defs><style type="text/css"></style></defs><path d="M830.472 472.316H393.37c-12.91 0-23.976 11.066-23.976 23.976 0 12.91 11.066 23.976 23.976 23.976h437.1c12.91 0 23.976-11.066 23.976-23.976 0-14.755-11.065-23.976-23.975-23.976z m0 201.03H393.37c-12.91 0-23.976 11.065-23.976 23.975s11.066 23.976 23.976 23.976h437.1c12.91 0 23.976-11.066 23.976-23.976s-11.065-23.976-23.975-23.976zM955.885 208.58H642.353l-5.534-14.755C599.933 90.545 528.005 64.725 474.52 62.88H68.773c-35.041 0-62.706 27.665-62.706 60.863v769.075c0 33.198 27.665 60.863 62.706 60.863h887.112c35.041 0 62.706-27.665 62.706-60.863V269.443c0-33.199-27.665-60.863-62.706-60.863zM68.773 151.406c0-47.951 16.6-40.575 86.683-40.575h250.826c106.97 0 134.634 23.976 154.922 59.019l14.755 36.885H68.773v-55.329z m890.8 675.017c0 70.084-23.976 71.928-82.994 71.928H151.766c-71.929 0-82.994-5.533-82.994-82.994V265.754h822.561c77.46 0 68.24 29.509 68.24 82.994v477.675z m-789.364-372.55h77.46v77.46h-77.46v-77.46z m0 204.718h77.46v77.46h-77.46v-77.46z" p-id="2197"></path></svg>